<svg xmlns="http://www.w3.org/2000/svg" viewBox="0 0 320 420">
  <defs>
    <linearGradient id="bg" x1="0" y1="0" x2="0" y2="1">
      <stop offset="0%" stop-color="#fdf2f8"/>
      <stop offset="100%" stop-color="#ffffff"/>
    </linearGradient>
    <linearGradient id="outfit" x1="0" y1="0" x2="0" y2="1">
      <stop offset="0%" stop-color="#ffffff"/>
      <stop offset="100%" stop-color="#fca5a5"/>
    </linearGradient>
    <linearGradient id="boots" x1="0" y1="0" x2="0" y2="1">
      <stop offset="0%" stop-color="#ef4444"/>
      <stop offset="100%" stop-color="#b91c1c"/>
    </linearGradient>
  </defs>
  <!-- 배경(여자 캐릭터 톤) -->
  <rect width="320" height="420" rx="24" fill="url(#bg)"/>
  <!-- 바닥/그림자 -->
  <ellipse cx="160" cy="310" rx="78" ry="18" fill="#111827" opacity="0.06"/>

  <!-- 여자 캐릭터(스프라이트 느낌의 단순 벡터) -->
  <!-- 얼굴 -->
  <circle cx="160" cy="130" r="46" fill="#fde68a"/>
  <!-- 헤어(주황 + 양갈래) -->
  <path d="M112 132c8-38 32-62 48-62s40 24 48 62c-10-12-24-22-48-22s-38 10-48 22z" fill="#f97316"/>
  <circle cx="118" cy="122" r="14" fill="#f97316"/>
  <circle cx="202" cy="122" r="14" fill="#f97316"/>
  <circle cx="112" cy="120" r="6" fill="#fb7185"/>
  <circle cx="208" cy="120" r="6" fill="#fb7185"/>
  <!-- 눈 -->
  <ellipse cx="146" cy="132" rx="7" ry="9" fill="#111827" opacity="0.85"/>
  <ellipse cx="174" cy="132" rx="7" ry="9" fill="#111827" opacity="0.85"/>
  <circle cx="148" cy="129" r="2" fill="#ffffff" opacity="0.9"/>
  <circle cx="176" cy="129" r="2" fill="#ffffff" opacity="0.9"/>
  <!-- 입 -->
  <path d="M150 154c6 6 14 6 20 0" stroke="#fb7185" stroke-width="3" stroke-linecap="round" fill="none"/>

  <!-- 몸통(상의/원피스 느낌: 흰 상의 + 빨강 라인) -->
  <rect x="130" y="176" width="60" height="58" rx="16" fill="url(#outfit)" stroke="#fecaca"/>
  <rect x="130" y="204" width="60" height="10" rx="5" fill="#ef4444" opacity="0.75"/>
  <!-- 팔 -->
  <rect x="108" y="186" width="26" height="60" rx="12" fill="#fde68a"/>
  <rect x="186" y="186" width="26" height="60" rx="12" fill="#fde68a"/>
  <circle cx="121" cy="246" r="10" fill="#fde68a"/>
  <circle cx="199" cy="246" r="10" fill="#fde68a"/>

  <!-- 치마/하의 -->
  <path d="M124 232h72c18 0 30 14 30 32v20c0 16-12 28-28 28h-76c-16 0-28-12-28-28v-20c0-18 12-32 30-32z" fill="#fca5a5" stroke="#fecaca"/>

  <!-- 검(손에 든 느낌) -->
  <rect x="190" y="236" width="54" height="12" rx="6" fill="#a16207" opacity="0.85"/>
  <rect x="238" y="232" width="8" height="20" rx="4" fill="#6b7280" opacity="0.9"/>

  <!-- 다리 + 부츠(빨강) -->
  <rect x="142" y="292" width="18" height="40" rx="9" fill="#fde68a"/>
  <rect x="160" y="292" width="18" height="40" rx="9" fill="#fde68a"/>
  <rect x="136" y="326" width="30" height="18" rx="8" fill="url(#boots)"/>
  <rect x="154" y="326" width="30" height="18" rx="8" fill="url(#boots)"/>

  <text x="160" y="392" font-family="system-ui, -apple-system, Segoe UI, Roboto" font-size="14" text-anchor="middle" fill="#64748b">FEMALE</text>
</svg>
